<?xml version="1.0" encoding="UTF-8" standalone="no"?>
<!-- Created with Inkscape (http://www.inkscape.org/) -->

<svg
   xmlns:dc="http://purl.org/dc/elements/1.1/"
   xmlns:cc="http://creativecommons.org/ns#"
   xmlns:rdf="http://www.w3.org/1999/02/22-rdf-syntax-ns#"
   xmlns:svg="http://www.w3.org/2000/svg"
   xmlns="http://www.w3.org/2000/svg"
   xmlns:sodipodi="http://sodipodi.sourceforge.net/DTD/sodipodi-0.dtd"
   xmlns:inkscape="http://www.inkscape.org/namespaces/inkscape"
   id="svg2"
   version="1.1"
   inkscape:version="0.91 r13725"
   width="2666"
   height="2666"
   viewBox="0 0 2666 2666"
   sodipodi:docname="Dragon Tattoo 01.svg"
   inkscape:export-filename="C:\Users\craig\Pictures\SVG\Dragon Tattoo 01.png"
   inkscape:export-xdpi="90"
   inkscape:export-ydpi="90">
  <metadata
     id="metadata8">
    <rdf:RDF>
      <cc:Work
         rdf:about="">
        <dc:format>image/svg+xml</dc:format>
        <dc:type
           rdf:resource="http://purl.org/dc/dcmitype/StillImage" />
        <dc:title></dc:title>
      </cc:Work>
    </rdf:RDF>
  </metadata>
  <defs
     id="defs6" />
  <sodipodi:namedview
     pagecolor="#ffffff"
     bordercolor="#666666"
     borderopacity="1"
     objecttolerance="10"
     gridtolerance="10"
     guidetolerance="10"
     inkscape:pageopacity="0"
     inkscape:pageshadow="2"
     inkscape:window-width="640"
     inkscape:window-height="480"
     id="namedview4"
     showgrid="false"
     inkscape:zoom="0.21155289"
     inkscape:cx="1333"
     inkscape:cy="1333"
     inkscape:current-layer="svg2" />
  <path
     style="fill:#090909"
     d="m 662.67026,2611.7489 c -24.7243,-3.2873 -54.13121,-17.4208 -72.61094,-34.8982 -16.7924,-15.8814 -24.35657,-28.4523 -32.25027,-53.5962 -5.21614,-16.615 -6.05235,-24.4532 -5.91764,-55.4679 0.17578,-40.4711 3.22776,-54.4582 18.57675,-85.1367 21.47569,-42.9241 49.93508,-72.9335 91.41248,-96.3912 13.90893,-7.8663 47.62135,-20.9942 53.91295,-20.9942 1.6016,0 -3.89109,5.0238 -12.20611,11.1641 -42.97219,31.7332 -64.5037,68.1496 -70.74577,119.653 -5.21286,43.0109 2.27935,76.3652 20.6202,91.798 11.18499,9.4115 24.25003,13.0497 39.56655,11.0179 16.08044,-2.1332 25.10716,-6.6579 33.7328,-16.9089 12.43263,-14.7753 13.47396,-31.3904 3.20888,-51.1987 l -4.46598,-8.6178 5.99156,1.7611 c 51.1847,15.045 76.47271,71.9008 56.14473,126.2321 -16.01309,42.7989 -69.18397,69.0006 -124.97019,61.5836 z M 458.85812,2400.9702 c -25.54324,-8.0782 -36.44275,-18.7306 -45.48293,-44.4515 -8.28376,-23.5687 -6.25874,-53.6067 5.17932,-76.8265 16.66242,-33.8255 49.5632,-58.6789 89.32172,-67.4741 24.96411,-5.5224 102.62871,-7.6277 147.05433,-3.9864 38.46545,3.1529 102.5144,10.6229 104.22169,12.1553 0.56414,0.5065 -3.4992,6.0578 -9.02965,12.3364 l -10.05533,11.4158 -37.40856,0.252 c -74.96149,0.5048 -135.31704,9.5014 -166.9092,24.8799 -38.02042,18.5077 -50.45297,49.124 -28.75796,70.819 6.18461,6.1846 9.94462,7.7313 18.79451,7.7313 11.61577,0 24.65852,-7.5237 24.65852,-14.2244 0,-1.9417 1.33378,-4.3547 2.96395,-5.3622 4.57499,-2.8274 0.37237,23.1933 -5.90165,36.5408 -6.10172,12.9809 -24.44429,30.8327 -37.12368,36.1306 -10.70441,4.4726 -37.48052,4.5059 -51.52508,0.06 z m 323.01041,-15.5916 c -27.86774,-9.9406 -41.58971,-28.8001 -41.30566,-56.7704 0.17629,-17.3498 4.31256,-29.1894 16.26876,-46.5672 7.62885,-11.0881 36.56131,-37.4157 41.11776,-37.4157 1.18048,0 -2.13779,8.5278 -7.37396,18.9508 -15.19913,30.2548 -18.93001,56.7718 -9.69182,68.8842 10.32141,13.5323 27.99002,16.5942 39.35362,6.8196 5.78835,-4.9789 6.89049,-7.9621 6.68702,-18.1001 -0.22703,-11.2948 0.10836,-11.9502 4.82278,-9.4272 12.56644,6.7254 18.89734,26.6046 13.88201,43.5903 -8.05763,27.2895 -35.37886,40.1597 -63.76051,30.0357 z m 348.43857,-49.6467 c -9.7442,-1.5822 -21.9275,-14.5156 -25.2313,-26.7847 -3.3807,-12.555 -0.368,-25.0799 8.9826,-37.3386 8.5513,-11.2114 42.0842,-27.8596 70.3248,-34.9146 l 21.2122,-5.2992 31.3541,5.3253 c 17.2446,2.9289 40.1092,5.3253 50.8099,5.3253 10.7008,0 18.9003,0.5555 18.2213,1.2346 -0.6794,0.6794 -14.5138,3.0526 -30.7439,5.2745 -83.7305,11.463 -126.4804,23.1726 -136.628,37.4236 -6.8922,9.6792 -6.5442,20.8948 0.8642,27.8548 7.5845,7.1252 14.6472,7.108 23.757,-0.06 l 7.2047,-5.6673 -1.8551,7.6022 c -3.7283,15.2779 -18.8309,23.1788 -38.2725,20.0218 z m -410.72699,-38.2187 c 49.1495,-80.8594 116.93913,-132.2042 197.98867,-149.9598 32.59816,-7.1412 107.95892,-7.5088 205.61362,-1.0026 165.8748,11.0512 234.2719,4.4313 288.4515,-27.918 25.9039,-15.4665 43.2804,-34.6614 66.3822,-73.3284 15.8034,-26.4514 26.1279,-40.1157 45.7511,-60.5512 32.7239,-34.0785 35.4157,-40.1437 38.0851,-85.8143 2.5628,-43.8443 4.3686,-50.5511 20.892,-77.5912 24.4025,-39.9344 26.3851,-45.9014 27.5855,-83.0235 1.0188,-31.5028 0.7723,-33.484 -5.8387,-46.997 -4.3123,-8.814 -17.6518,-25.5146 -35.5503,-44.5076 -15.7563,-16.72 -33.0818,-35.9904 -38.501,-42.8231 -10.8707,-13.7062 -17.6924,-32.9218 -17.6924,-49.8359 0,-19.3643 -5.1618,-36.89 -13.7441,-46.6647 -4.4382,-5.0548 -17.9637,-16.4573 -30.0565,-25.3389 -20.7904,-15.2696 -38.3884,-34.279 -56.0263,-60.5199 -11.2712,-16.769 -17.5046,-29.425 -13.2569,-26.9167 14.5181,8.5731 43.689,29.5205 62.3363,44.7632 l 22.3531,18.2721 26.6284,0 c 35.4301,0 49.4525,4.2896 64.7522,19.8085 6.507,6.6002 11.8309,12.8244 11.8309,13.8316 0,1.0071 -4.6554,-0.4721 -10.3454,-3.2873 -12.646,-6.2568 -26.0328,-4.5289 -35.0912,4.5295 -9.104,9.1041 -7.6684,15.5711 7.6563,34.4878 30.9486,38.2027 67.6117,101.2493 76.8924,132.2254 1.6407,5.4759 4.2832,9.9563 5.8723,9.9563 6.3813,0 39.2959,17.8885 45.6929,24.8333 6.638,7.2063 17.6785,25.9344 17.6785,29.988 0,1.1054 -4.6409,-1.0615 -10.3133,-4.8152 -8.1598,-5.4 -12.2568,-6.5096 -19.6221,-5.3144 -12.693,2.0598 -22.2693,8.6485 -20.5584,14.1446 2.743,8.8117 6.6515,42.4828 8.2159,70.7794 3.629,65.6382 -12.4979,150.5328 -41.0492,216.0909 -43.6609,100.2518 -95.1682,155.46 -176.1467,188.8028 -41.1792,16.9555 -69.0524,23.0649 -112.0319,24.5559 -47.6381,1.6526 -89.2833,-2.7102 -199.9908,-20.9515 -46.8278,-7.7159 -100.8024,-15.8511 -119.9434,-18.0781 -79.81698,-9.287 -128.05973,-2.2237 -185.87117,27.2138 -38.49495,19.6015 -65.21979,42.6942 -101.22978,87.4721 -5.64456,7.0189 -5.16711,5.6053 2.20066,-6.5159 z m 1122.10449,-32.6624 c 10.2997,-5.6623 25.1016,-21.8025 31.54,-34.3913 10.6659,-20.8547 11.5121,-26.3701 5.7722,-37.6213 -8.3748,-16.4159 -6.9014,-24.0975 6.374,-33.2312 6.2906,-4.3281 12.043,-9.8984 12.7831,-12.3786 4.5068,-15.1019 40.4805,-155.8578 53.1786,-208.0737 53.6407,-220.5764 73.1018,-368.2642 73.1238,-554.9261 0.017,-132.8317 -6.6539,-216.9108 -24.0557,-303.256 -11.4849,-56.986 -31.8599,-121.13771 -38.4742,-121.13771 -6.9166,0 -15.4108,-17.3238 -18.1277,-36.9706 -2.2199,-16.0528 -5.763,-26.1193 -17.2525,-49.0181 -43.078,-85.8554 -138.689,-225.9419 -226.1349,-331.3265 -9.7212,-11.7153 -16.9618,-22.4542 -16.0904,-23.8641 2.6978,-4.3652 12.5903,-2.8505 26.4322,4.0473 42.8814,21.3687 144.2189,163.041 227.7904,318.4567 15.8888,29.5479 25.7537,44.5476 37.7841,57.4511 l 16.2812,17.4627 0,20.472 c 0,15.855 1.7738,25.8807 7.8653,44.4549 54.0732,164.87861 67.3179,406.55011 35.8135,653.47861 -14.3991,112.8586 -37.4463,221.793 -83.4605,394.4819 -14.7811,55.4724 -30.6032,115.3708 -35.1602,133.1077 -9.795,38.1234 -20.0826,60.5897 -35.6979,77.9577 -11.3262,12.5974 -34.1598,27.8195 -41.5743,27.7155 -2.6879,-0.034 -2.2939,-0.9207 1.2899,-2.8909 z M 733.61752,2203.1056 c -109.98545,-9.4752 -168.8538,-35.746 -193.84199,-86.5042 -7.51742,-15.2701 -8.59708,-19.9696 -8.49247,-36.9666 0.20175,-32.7845 16.34459,-59.0293 41.39839,-67.305 14.65212,-4.8399 36.81948,-4.3455 46.97818,1.0475 9.65261,5.1244 18.35435,21.2933 18.44491,34.2726 l 0.0602,8.1267 -8.77166,-8.7717 c -12.12536,-12.1254 -24.44043,-12.1942 -36.43112,-0.2038 -20.60514,20.6051 -12.01649,54.6868 19.83797,78.7222 35.88968,27.08 89.77786,43.9637 167.0795,52.3479 28.12452,3.0503 29.15897,3.3724 23.25711,7.2391 -3.39713,2.2257 -11.15033,7.8199 -17.22918,12.4314 -12.0268,9.1238 -11.55047,9.0731 -52.28632,5.5637 z m 54.1779,-39.8007 c -26.72742,-4.6885 -40.87766,-9.4451 -60.1336,-20.2136 -30.64836,-17.1396 -46.15923,-41.2758 -51.32196,-79.8617 -2.50302,-18.7072 -2.29499,-24.4691 1.42815,-39.5563 13.74278,-55.6897 74.89614,-91.9026 130.29631,-77.157 29.03738,7.7287 44.05248,25.1282 44.17193,51.1863 0.12126,26.4059 -18.09765,44.2959 -43.31807,42.5363 -11.7296,-0.8178 -11.88397,-0.9352 -5.13331,-3.8894 10.12112,-4.4293 15.34499,-13.6525 13.35838,-23.5855 -2.08559,-10.4278 -9.67987,-15.8092 -22.31029,-15.8092 -20.17336,0 -35.80859,14.4428 -40.59508,37.4992 -7.27987,35.067 9.97063,66.5571 46.63978,85.1386 14.81972,7.5099 57.71701,19.2568 70.32129,19.2568 9.82116,0 6.46867,3.3132 -7.30215,7.2167 -5.67888,1.6098 -17.13888,7.0298 -25.46663,12.0445 -16.65798,10.0309 -20.70008,10.4455 -50.63475,5.1943 z m 607.73628,-57.7882 c 3.7467,-5.6615 6.318,-12.7594 5.8415,-16.1244 -0.8411,-5.9396 -1.3409,-6.0276 -42.132,-7.4261 -46.6774,-1.6003 -57.4011,-4.8086 -67.6862,-20.2504 -11.2718,-16.923 -5.2002,-42.0657 11.8653,-49.1344 10.3635,-4.2928 19.7509,-1.7875 29.3788,7.8404 8.1218,8.1219 8.2333,12.1781 0.2211,8.0494 -9.6236,-4.9589 -18.89,5.3465 -13.6356,15.1645 6.1942,11.574 23.6753,16.0791 68.4887,17.6504 44.3753,1.556 50.0568,3.2165 50.0568,14.6309 0,3.3512 -3.1926,9.5653 -7.0947,13.8091 -6.7287,7.3179 -35.3377,25.9041 -39.8733,25.9041 -1.1678,0 0.8886,-4.5511 4.5696,-10.1135 z m 56.2216,-45.9993 c 7.4843,-26.5819 3.2034,-31.415 -33.2025,-37.4854 -33.9068,-5.6537 -48.5995,-10.2351 -65.6836,-20.4812 -11.3661,-6.8167 -15.6178,-11.4064 -21.8261,-23.5612 -13.7889,-26.9967 -9.7844,-60.8304 9.2468,-78.1242 22.2759,-20.2423 56.2784,-19.0642 69.3678,2.4033 6.3983,10.4934 6.3764,18.9607 -0.077,29.5437 -6.091,9.9901 -10.3478,10.8105 -10.3478,1.9943 0,-4.0444 -2.4768,-8.0131 -6.747,-10.8111 -5.9888,-3.924 -7.4828,-4.0031 -13.2939,-0.7043 -17.2954,9.8181 -21.5268,29.3791 -10.6247,49.1166 8.8719,16.0624 24.5554,24.8579 52.7906,29.6059 43.5679,7.3264 50.0418,9.0485 52.7019,14.0187 3.1907,5.9619 0.4772,13.584 -12.0734,33.918 -9.5589,15.4868 -12.4612,18.4839 -10.232,10.5671 z m -409.3516,-34.8286 c -11.5887,-17.8553 -17.2554,-40.395 -17.2564,-68.6391 l -10e-4,-24.8823 12.8406,-11.6096 c 7.3686,-6.6622 13.5793,-14.8098 14.5742,-19.1194 1.7225,-7.4614 1.6942,-7.4823 -4.384,-3.2249 -3.3647,2.3567 -8.5698,4.285 -11.567,4.285 -2.997,0 -8.4362,3.3524 -12.0869,7.4497 -5.8507,6.5664 -7.9659,7.3044 -17.8408,6.2242 -10.73175,-1.1738 -11.73826,-0.6639 -23.92579,12.1272 -13.49477,14.1628 -14.04601,14.2997 -35.7821,8.8857 -13.13238,-3.271 -25.71524,13.6484 -34.98491,47.0418 l -4.88487,17.5976 -1.92151,-12.4056 c -1.05681,-6.8232 -1.41963,-21.9683 -0.80579,-33.6559 1.37285,-26.1563 11.137,-49.0348 28.7904,-67.4588 11.70277,-12.2138 11.96497,-12.3282 24.77573,-10.8109 12.75339,1.5104 13.07416,1.3741 21.37206,-9.0822 20.87058,-26.2994 23.39708,-28.0365 39.84548,-27.3978 12.7221,0.4936 17.4767,-0.7301 31.1117,-8.0081 15.4694,-8.2573 16.5484,-8.4641 27.7709,-5.322 23.221,6.5015 50.4263,-2.9683 74.8282,-26.0466 7.3395,-6.9413 14.111,-11.8541 15.0477,-10.9173 3.2377,3.2376 1.6896,32.0008 -2.2268,41.3742 -2.1617,5.1734 -9.5281,15.3251 -16.3699,22.5594 -15.2514,16.126 -17.0008,19.3519 -20.9792,38.6852 -4.8025,23.338 -7.0476,26.7244 -20.1762,30.4324 -10.6077,2.996 -12.007,4.3566 -15.7275,15.2922 -5.5164,16.2139 -11.9564,22.7733 -22.3588,22.7733 -4.645,0 -10.2392,1.7937 -12.4315,3.986 -6.6637,6.6637 -9.8981,24.4678 -8.7667,48.257 0.5908,12.4158 0.9756,22.5741 0.8557,22.5741 -0.1195,0 -3.4204,-4.934 -7.3345,-10.9645 z m 871.1746,-17.4144 c 3.4476,-26.1503 4.8979,-225.9308 1.8916,-260.5699 -5.2158,-60.0956 -14.6314,-104.7401 -25.9812,-123.1902 -6.8324,-11.1069 -17.1584,-11.3482 -29.3032,-0.6845 -8.9976,7.9 -31.1165,38.4366 -38.9786,53.8125 -2.4253,4.7435 -5.0372,7.997 -5.8041,7.2301 -2.3953,-2.3952 27.2992,-61.4602 38.072,-75.7287 23.1606,-30.676 44.0732,-27.9992 61.7482,7.9038 13.9267,28.2893 18.3598,56.7689 19.908,127.8966 0.8247,37.8912 0.1368,80.5899 -1.7245,107.0659 -3.4441,48.9857 -17.013,163.7284 -19.6603,166.254 -0.9342,0.8912 -1.0097,-3.604 -0.1677,-9.9892 z m -407.4272,-34.9441 c 0.9435,-5.0299 2.6437,-20.1453 3.7781,-33.5899 1.1344,-13.4445 2.5232,-24.8388 3.0863,-25.3206 0.5633,-0.4816 4.3192,-1.6675 8.3469,-2.6352 7.1473,-1.7171 7.2801,-1.5555 5.5329,6.7318 -2.8541,13.5372 -19.4188,63.959 -21.012,63.959 -0.7963,0 -0.6759,-4.1152 0.2674,-9.1451 z m 4.6633,-72.5404 c -7.0219,-2.8334 -3.1792,-11.0926 7.5793,-16.2905 5.9423,-2.871 11.1666,-5.22 11.6096,-5.22 0.4429,0 0.8058,3.877 0.8058,8.6155 0,6.7288 -1.4391,9.2712 -6.5712,11.6096 -7.008,3.1931 -8.3716,3.3237 -13.423,1.2854 z m -4.0623,-27.7114 c -2.7627,-7.1995 1.345,-13.3476 12.5913,-18.8455 l 11.4653,-5.605 0,8.6887 c 0,6.3137 -1.8582,10.1502 -6.7977,14.0357 -7.8664,6.1878 -15.263,6.9274 -17.2589,1.7261 z m -548.68127,-11.9492 c 0,-10.6403 6.91155,-20.5484 14.33384,-20.5484 3.30047,0 6.72227,1.1673 7.60408,2.5941 1.70979,2.7664 -15.84884,25.7848 -19.66881,25.7848 -1.24807,0 -2.26911,-3.5237 -2.26911,-7.8305 z m 547.48377,-16.0609 c -2.6661,-3.2521 -3.9579,-10.0042 -3.422,-17.8861 0.1634,-2.4029 3.689,-6.3726 7.8347,-8.8215 4.1456,-2.4489 8.9856,-7.1584 10.7556,-10.4655 5.0087,-9.3588 6.9427,-7.2422 8.0607,8.8216 1.1247,16.1594 -0.6088,19.7708 -12.9881,27.0616 -5.9766,3.5198 -8.1848,3.7979 -10.2409,1.2899 z m -479.1951,-21.9018 c 3.5868,-14.372 15.6307,-19.7799 30.8023,-13.8307 4.5202,1.7726 4.3084,2.369 -2.5799,7.2633 -6.6751,4.7428 -25.437,13.6621 -28.7385,13.6621 -0.6897,0 -0.4575,-3.1926 0.516,-7.0947 z m 674.7226,0.8994 c 0,-0.3715 5.7094,-4.375 12.6875,-8.8967 16.9903,-11.0093 29.4983,-29.6721 27.4928,-41.0208 -0.8153,-4.6116 -2.2237,-12.5068 -3.1306,-17.545 -1.5172,-8.4301 -0.7094,-10.0351 10.1394,-20.1377 10.4596,-9.7404 12.5116,-13.578 18.2091,-34.0531 16.4165,-58.9968 26.6156,-119.1122 34.1165,-201.0886 7.4233,-81.1299 4.8209,-151.8419 -9.3052,-252.8303 -2.7787,-19.8653 -8.433,-62.8787 -12.5651,-95.5856 -7.1635,-56.701 -7.913,-60.1211 -16.1148,-73.5272 -8.4765,-13.8551 -8.6065,-14.5304 -8.9148,-46.3089 -0.3191,-32.86471 -2.8698,-52.78041 -16.6652,-130.11571 -19.891,-111.5059 -44.1467,-213.787 -76.4081,-322.197 -14.4179,-48.4496 -14.4393,-48.5731 -9.57,-55.095 6.9943,-9.3681 9.3326,-8.7249 15.7328,4.3272 25.1578,51.3055 66.0965,215.7054 105.1022,422.0659 9.6741,51.18091 12.5683,62.25071 18.2081,69.64511 12.698,16.6478 14.2506,23.5996 11.0081,49.2883 -3.1039,24.5905 -2.8569,27.4651 17.2676,200.9425 16.9405,146.0302 14.2338,239.0065 -10.5274,361.6293 -19.6132,97.1288 -48.2466,160.2016 -82.2746,181.232 -7.7453,4.7869 -24.4883,11.1258 -24.4883,9.2713 z m -621.756,-11.0354 c 0,-1.3042 8.9974,-15.085 19.9942,-30.6238 18.2664,-25.8111 20.7362,-28.2873 28.5798,-28.6548 4.7667,-0.2236 15.2675,-4.5266 23.6079,-9.6746 24.6266,-15.2005 29.1182,-10.986 16.567,15.5449 -8.4439,17.849 -29.394,39.3894 -46.1433,47.4434 -13.0061,6.2542 -42.6056,10.3981 -42.6056,5.9649 z m 942.9895,-4.6984 c 16.487,-52.6797 33.4123,-126.6506 41.0262,-179.3031 2.1544,-14.8989 8.6131,-72.9467 14.3525,-128.995 25.3253,-247.3146 36.4883,-326.7779 51.5252,-366.7767 7.1192,-18.9375 14.0337,-27.4808 27.0122,-33.3754 21.7197,-9.8645 39.4844,-4.0026 53.144,17.5365 9.9959,15.7619 9.7001,18.0682 -1.2467,9.7187 -11.7939,-8.9957 -26.0801,-10.7051 -36.2164,-4.3334 -26.1262,16.4227 -42.0543,91.2255 -65.7676,308.863 -20.8129,191.018 -24.4927,215.8144 -39.9661,269.31 -9.3611,32.3634 -27.509,79.2894 -38.5827,99.7651 -3.7924,7.0126 -6.1688,10.4282 -5.2806,7.5903 z m -527.3731,-6.8348 c -5.2004,-14.9175 -3.5942,-21.0121 8.7231,-33.1006 6.3555,-6.2375 11.9865,-10.8328 12.5132,-10.2118 0.5272,0.6209 2.1462,5.9732 3.5989,11.8938 2.3234,9.4697 1.8882,12.108 -3.617,21.9291 -5.9446,10.6051 -12.5309,17.6142 -16.5516,17.6142 -1.0089,0 -3.1089,-3.6561 -4.6666,-8.1247 z M 1185.19,1783.9841 c 0.1075,-27.4631 5.0974,-57.1192 12.4613,-74.0534 2.9334,-6.7456 12.5684,-23.5794 21.4113,-37.4085 26.3184,-41.1587 33.1148,-55.9349 33.1148,-71.9954 0,-16.5613 -6.3771,-30.6393 -18.4999,-40.84 -9.0829,-7.6427 -11.5255,-7.7339 -64.257,-2.3973 -19.2859,1.9517 -33.1184,-2.6573 -53.0884,-17.6894 -13.4175,-10.0997 -14.2757,-13.2052 -2.2622,-8.1857 4.9207,2.056 16.3196,3.7383 25.3307,3.7383 30.9858,0 61.1594,-13.1985 87.6613,-38.3448 l 14.873,-14.1121 17.2822,8.8141 c 28.6441,14.6087 32.2411,24.3741 32.7065,88.7911 0.1712,23.6409 -0.8462,36.2034 -3.4474,42.5683 -4.6831,11.4606 -15.5516,27.624 -25.2079,37.4885 -27.2206,27.8072 -51.7239,71.0375 -65.7589,116.0156 -4.4277,14.1894 -9.0311,26.9019 -10.2299,28.2499 -1.2056,1.3556 -2.1393,-7.8672 -2.0895,-20.6392 z m 298.1667,-22.1859 c -6.2512,-8.9249 -5.0535,-18.531 4.4477,-35.6735 l 8.5957,-15.5087 6.0097,12.831 c 5.9181,12.6356 5.9394,12.9867 1.3959,23.0624 -2.5376,5.6273 -7.2433,12.7019 -10.4573,15.7212 l -5.8436,5.4898 -4.1481,-5.9222 z m 482.5215,-47.3424 c -4.757,-107.2481 -18.3056,-167.4317 -43.7043,-194.1375 -14.9171,-15.6848 -36.7131,-8.5747 -61.869,20.1823 -6.6938,7.652 -12.1705,13.0772 -12.1705,12.056 0,-5.5598 23.9146,-41.0105 36.2404,-53.7221 38.6815,-39.8925 67.8559,-17.4218 81.202,62.5434 4.9751,29.809 7.3946,118.0832 4.514,164.6874 l -2.1528,34.8287 -2.0598,-46.4382 z m -833.3697,17.4957 c -0.7602,-0.7602 0.2503,-5.2886 2.2456,-10.0635 2.7006,-6.4634 9.0675,-40.5962 9.0675,-48.6107 0,-0.4489 1.4512,-0.7628 3.2249,-0.6966 10.5852,0.393 15.7587,-1.7646 26.4812,-11.0449 6.5783,-5.6936 13.0342,-9.6884 14.3463,-8.8774 4.0917,2.5288 2.6238,18.3998 -3.1223,33.7575 -5.3655,14.3407 -21.3147,34.6747 -31.4535,40.1008 -7.3581,3.938 -19.1928,7.032 -20.7897,5.4351 z m 325.9551,-8.6148 -5.6171,-7.8884 7.7063,-23.1952 7.7062,-23.1952 8.0547,10.9526 c 4.4302,6.024 8.0548,11.7032 8.0548,12.6204 0,3.876 -10.5341,31.8742 -13.2018,35.0885 -4.2684,5.1431 -6.4581,4.3875 -12.7031,-4.3827 z m -22.0133,-28.4454 c -4.2011,-4.6467 -4.9698,-9.4444 -4.9698,-31.0161 0,-14.0355 0.3681,-25.5208 0.817,-25.5228 0.4497,0 4.803,3.0365 9.6746,6.7522 7.8669,6.0004 8.8506,8.0923 8.7959,18.7043 -0.069,13.6458 -3.5919,30.8233 -7.0226,34.2538 -1.3806,1.3807 -4.3446,0.092 -7.2952,-3.1714 z m -31.7318,-26.5258 c -4.5093,-4.7998 -6.2345,-10.9688 -8.0858,-28.9125 -1.2944,-12.546 -1.8959,-23.2683 -1.3368,-23.8275 0.559,-0.559 5.6462,1.5852 11.3045,4.7653 l 10.2878,5.7821 1.7783,21.3493 c 0.9781,11.7421 1.0003,22.6084 0.052,24.1472 -2.7597,4.4654 -7.8206,3.2709 -13.9973,-3.3039 z m -264.8298,-18.9314 c -2.4424,-6.3953 -7.8901,-15.5564 -12.1059,-20.358 l -7.6651,-8.7301 7.3371,-2.6773 c 18.9408,-6.9114 23.5308,-9.1199 33.4361,-16.0874 5.8408,-4.1085 13.2225,-10.9907 16.4038,-15.2937 5.2984,-7.1664 6.1304,-7.4773 9.9055,-3.7021 5.882,5.8819 4.8284,29.0914 -2.0237,44.5817 -8.2024,18.5427 -17.3086,27.144 -33.7209,31.851 -6.6819,1.9163 -7.4031,1.3187 -11.5669,-9.5841 z m 229.2292,0.6484 c -9.3131,-7.9716 -10.5759,-10.4727 -12.0486,-23.864 -0.9049,-8.2276 -2.406,-19.418 -3.336,-24.8675 l -1.6908,-9.9084 13.0551,6.6155 c 14.1305,7.1605 13.743,6.3618 18.6796,38.4874 3.8972,25.3613 1.6159,27.468 -14.6593,13.537 z m 396.6634,-10.6412 c -7.1357,-97.2831 -28.3412,-168.8173 -57.2566,-193.148 -8.5131,-7.1633 -24.0735,-8.9252 -33.6342,-3.8085 -9.6961,5.1893 -8.1759,-0.06 3.3568,-11.5939 14.9304,-14.9304 23.022,-16.9634 37.322,-9.3773 29.4453,15.6207 45.3368,67.275 50.2869,163.4534 1.4466,28.1076 2.0674,52.4876 1.3795,54.1779 -0.7491,1.8399 -1.3325,1.9588 -1.4544,0.2967 z m -435.4522,-8.1877 c -7.2166,-6.3367 -8.3406,-9.3002 -10.5188,-27.734 -1.3413,-11.3515 -1.9881,-21.4425 -1.4374,-22.4245 1.4391,-2.5655 16.682,4.2897 19.0847,8.5829 2.871,5.1303 10.0238,44.2496 8.5321,46.6632 -2.3094,3.7367 -7.5493,2.0344 -15.6606,-5.0876 z m -29.8418,-12.8995 c -0.5573,-1.0642 -0.4962,-10.9859 0.1358,-22.0482 1.5607,-27.3309 6.7658,-25.3842 7.7717,2.9065 0.6131,17.2345 0.052,21.0766 -3.0727,21.0766 -2.102,0 -4.2777,-0.8707 -4.8347,-1.9349 z m -265.0215,-12.3805 c -9.2231,-1.9724 -24.3155,-6.0597 -33.5387,-9.0831 -20.90077,-6.8513 -65.09231,-25.8844 -63.58909,-27.3876 0.61402,-0.614 10.69945,0.7026 22.41289,2.9242 65.0649,12.3427 130.1129,14.8841 170.0502,6.644 13.4134,-2.7676 24.8255,-4.5945 25.3602,-4.0598 2.6757,2.6757 -8.7335,14.3449 -20.0446,20.5011 -24.9409,13.5746 -66.0914,17.8515 -100.6509,10.4612 z m 604.6312,-18.5335 c 10.3344,-19.9896 7.0258,-47.0247 -8.609,-70.3467 -4.2805,-6.3852 -7.7878,-13.0857 -7.7939,-14.8898 -0,-1.804 3.0489,-7.9041 6.7889,-13.5556 6.6179,-10.0002 6.7128,-10.7067 3.5481,-26.3886 -13.46,-66.6969 -39.8507,-162.1206 -68.1368,-246.3694 l -14.0756,-41.9234 6.9254,0 c 3.8089,0 10.9041,-1.1411 15.767,-2.5358 4.863,-1.3946 9.3419,-2.0355 9.9533,-1.4243 2.2408,2.2409 19.2763,63.6015 34.0473,122.6355 32.9017,131.4955 45.9997,211.3813 41.081,250.5545 -2.4132,19.2178 -11.7357,42.5702 -19.5982,49.0922 -3.8247,3.1726 -3.8153,2.7296 0.1023,-4.8486 z m -723.30657,-34.3209 c -32.95092,-5.7099 -49.37447,-36.4415 -41.64337,-77.9228 7.61139,-40.8387 48.12769,-89.6686 110.8688,-133.6181 10.40456,-7.2882 19.35504,-12.8137 19.88994,-12.2788 0.5349,0.5349 -5.5168,6.147 -13.44828,12.4714 -19.60087,15.6293 -62.60196,61.0003 -73.72073,77.7838 -23.05734,34.8045 -22.87004,69.3484 0.44976,83.041 6.70293,3.9356 9.458,4.3068 14.59441,1.9666 6.86065,-3.126 12.1067,-13.5526 9.81867,-19.515 -1.56213,-4.0709 -15.1441,-9.7183 -17.56069,-7.3018 -0.82987,0.8299 -1.50933,0.2391 -1.50933,-1.3133 0,-4.5921 13.08999,-13.5167 19.82533,-13.5167 22.5178,0 38.71648,25.8106 31.95585,50.9178 -7.73884,28.74 -31.16201,44.2001 -59.52088,39.2859 z m 857.86437,-45.7004 c -4.7997,-38.7604 -21.5337,-90.316 -36.2347,-111.6349 -16.0318,-23.2485 -45.3686,-28.2832 -65.6016,-11.2582 -9.4738,7.9717 -9.924,4.8719 -1.6479,-11.3475 12.0236,-23.5639 32.0138,-34.6238 52.5741,-29.0874 9.8548,2.6536 23.1093,14.3947 28.8495,25.5554 11.6029,22.5597 21.9195,73.6491 24.8835,123.226 1.8609,31.1261 0.2546,39.4019 -2.8229,14.5466 z m 215.5534,-1.9349 c -8.7684,-46.2487 -27.7231,-89.9067 -43.7676,-100.8093 -22.884,-15.5501 -56.7725,-1.4614 -79.7128,33.1393 -3.5469,5.3499 -6.973,9.2031 -7.6134,8.5626 -0.6406,-0.6406 1.2748,-7.6833 4.2558,-15.651 16.1281,-43.1062 38.8732,-66.3688 60.4935,-61.8697 34.7141,7.2237 56.9305,45.7699 67.4073,116.9537 4.8497,32.951 4.0968,46.8884 -1.0628,19.6744 z m -863.2557,11.3872 c -12.5949,-1.6096 -27.7927,-7.7157 -30.6299,-12.3065 -0.7637,-1.2352 5.258,-2.861 13.3809,-3.6129 60.014,-5.5546 128.4689,-61.1542 136.406,-110.7897 2.2424,-14.0232 5.1088,-12.1018 6.8304,4.5784 3.4441,33.3702 -9.2691,66.9879 -33.4999,88.5845 -27.2975,24.3298 -63.0715,37.3054 -92.4875,33.5462 z m 241.376,-54.328 c -21.0773,-78.1134 2.866,-131.5086 67.0218,-149.4631 19.0512,-5.3316 55.4883,-4.1597 73.5272,2.365 19.3666,7.0048 46.1376,25.0913 61.5876,41.6087 11.0513,11.8146 35.1587,46.4761 35.1587,50.5509 0,1.0084 -5.8268,-4.086 -12.9484,-11.3209 -17.9072,-18.1919 -43.2162,-35.732 -64.4033,-44.6339 -50.1406,-21.0667 -108.4051,-12.153 -133.3005,20.3934 -14.556,19.0297 -20.2077,40.993 -20.2297,78.6161 -0.01,18.0906 -0.1823,32.8927 -0.3819,32.8937 -0.1995,9e-4 -2.9136,-9.4535 -6.0318,-21.0099 z m -744.97394,-15.752 c -23.02303,-23.8938 -37.74626,-61.2598 -37.86657,-96.1013 -0.0998,-28.9714 2.98116,-37.9128 21.62481,-62.7525 24.39579,-32.5035 24.31281,-32.2297 20.50384,-67.6563 l -3.27234,-30.4351 6.95678,-9.1209 c 4.35324,-5.7073 13.45625,-12.1948 24.32279,-17.3341 9.5513,-4.5173 24.13488,-11.5958 32.40801,-15.7301 8.7819,-4.3885 14.15041,-6.0055 12.89951,-3.8855 -4.98102,8.4421 -16.20625,19.6859 -32.20791,32.2612 -24.26508,19.069 -26.04443,22.545 -27.28494,53.3017 -1.01536,25.1757 -1.41352,26.6246 -14.32911,52.1438 l -13.28468,26.2486 2.97472,17.6097 c 2.41796,14.3142 2.28106,20.2499 -0.73098,31.7165 -6.8738,26.165 -2.83505,58.9368 10.50845,85.2689 3.58142,7.0675 6.13939,12.8501 5.6843,12.8501 -0.45493,0 -4.46289,-3.7731 -8.90633,-8.3847 z m 43.8037,-37.8481 c -26.95385,-26.9539 -38.01509,-52.4977 -36.20228,-83.6023 0.98595,-16.9177 2.22946,-20.376 14.46154,-40.2194 l 13.38289,-21.7101 0,-27.5787 0,-27.5787 13.84873,-12.6288 c 7.61682,-6.9457 16.78372,-14.6235 20.3709,-17.0616 3.58718,-2.4381 11.37323,-13.4672 17.30235,-24.5091 18.60624,-34.6509 34.86942,-47.1724 61.2458,-47.1554 34.32428,0.026 45.99747,25.1985 19.36757,41.7715 l -8.46921,5.2708 3.00361,-6.5921 c 4.52979,-9.9418 1.36734,-15.1433 -8.6216,-14.1807 -7.87059,0.7585 -8.45218,1.4946 -9.18866,11.6293 -1.00874,13.8825 5.1211,25.9599 14.35173,28.2767 3.86211,0.9693 16.32122,0.3276 27.68706,-1.4268 31.31973,-4.8335 51.68314,-6.2889 59.73071,-4.2691 6.93726,1.7412 6.65192,2.0285 -6.40168,6.4476 -7.51431,2.5438 -17.35731,8.1267 -21.87326,12.4062 -5.95036,5.6389 -11.76211,8.2482 -21.11029,9.478 -30.70606,4.0394 -77.7483,12.4918 -81.90529,14.7166 -2.59676,1.3898 -4.52747,5.4012 -4.53581,9.4237 -0.0258,14.3359 -5.26936,26.2362 -14.72022,33.431 -20.98242,15.9737 -21.38394,16.6901 -21.38394,38.1517 0,21.5158 -0.99893,23.2176 -23.72149,40.4122 -15.25383,11.5429 -14.56818,35.4631 2.04947,71.4962 4.84807,10.5123 8.36782,19.56 7.82183,20.1061 -0.54608,0.546 -7.96673,-5.9811 -16.49046,-14.5048 z m 1115.28864,-11.0698 c -12.4287,-38.2879 -39.2144,-78.671 -58.9513,-88.8774 -16.9523,-8.7663 -42.5695,2.0308 -60.4339,25.4715 l -6.4649,8.4828 1.6347,-8.8681 c 4.7394,-25.7127 24.909,-52.6761 41.7695,-55.8392 29.27,-5.491 63.119,27.6657 77.9106,76.3169 5.6518,18.5896 12.0924,53.8305 10.1863,55.7365 -0.6716,0.6716 -3.2148,-4.9184 -5.651,-12.423 z m 210.5103,-24.5249 c -20.9015,-42.2672 -48.0374,-76.4052 -66.2326,-83.3229 -9.6719,-3.6773 -26.1279,-3.1226 -34.4089,1.1597 -7.0703,3.6562 -20.5479,17.36 -29.3661,29.859 -4.4047,6.2433 -4.4192,6.1322 -0.5099,-3.893 10.6753,-27.3733 30.0444,-51.2823 45.2303,-55.8321 21.3126,-6.3854 47.9138,13.7194 67.458,50.9837 9.3887,17.9013 31.1277,77.4221 29.7675,81.5027 -0.4033,1.2108 -5.7761,-7.9949 -11.9388,-20.4571 z m -671.7806,2.91 c -4.2806,-53.3271 13.9202,-94.6254 52.8266,-119.8657 31.6229,-20.5152 76.4565,-23.8257 110.8488,-8.1852 28.8317,13.1117 51.4819,30.5024 72.4442,55.6221 11.4113,13.6744 10.6194,13.6944 -8.4302,0.2141 -24.0126,-16.9929 -50.4316,-27.6316 -80.0161,-32.2217 -66.0354,-10.2458 -130.6165,36.746 -141.825,103.1974 -1.6921,10.0316 -3.3931,18.2392 -3.7801,18.2392 -0.387,0 -1.3177,-7.6499 -2.0682,-16.9998 z m -401.26234,-20.3031 c -12.25754,-15.583 -12.27285,-19.283 -0.20553,-49.5762 6.11857,-15.3595 11.47212,-28.4344 11.89686,-29.0554 0.42482,-0.6209 5.88467,3.8882 12.1331,10.0207 l 11.36068,11.1497 -7.83421,22.2281 c -9.08968,25.7899 -16.6917,41.5773 -20.02055,41.5773 -1.28711,0 -4.58585,-2.8549 -7.33052,-6.3442 z m 34.08925,-15.8011 c 6.7903,-12.6517 13.15534,-23.876 14.14448,-24.943 0.98913,-1.0669 5.6351,2.0186 10.32433,6.8566 8.30177,8.5653 8.38622,8.8715 3.20948,11.6419 -2.92415,1.565 -13.12585,8.8309 -22.67045,16.1464 l -17.35378,13.301 12.34594,-23.0029 z m 327.68519,-33.7794 c 3.1205,-67.7789 28.5085,-109.3219 75.6454,-123.7799 19.3548,-5.9366 52.709,-4.6539 79.2915,3.0495 20.4086,5.9141 60.6424,22.571 60.6424,25.106 0,0.5504 -8.417,-1.1517 -18.7043,-3.7823 -43.1104,-11.0242 -86.4854,-8.0256 -119.6666,8.2726 -31.3831,15.415 -59.6533,53.8371 -73.0852,99.3306 l -5.3321,18.0593 1.2089,-26.2558 z m -402.23828,3.7161 c -5.00406,-7.4305 -9.09819,-14.39 -9.09819,-15.4654 0,-3.5478 23.92565,-53.5814 25.62219,-53.5814 0.91337,0 7.06394,5.5145 13.66797,12.2545 l 12.00728,12.2546 -10.53227,25.799 c -5.79274,14.1894 -11.67207,27.2502 -13.06513,29.0238 -4.67332,5.9501 -9.44527,3.3117 -18.60185,-10.2851 z m 890.15158,-25.2759 c -11.9519,-19.3636 -33.1843,-41.2516 -45.6927,-47.1036 -20.6324,-9.6529 -36.7518,-3.1456 -66.0574,26.6667 l -16.139,16.4182 6.3939,-16.3154 c 18.7417,-47.8229 46.3361,-66.321 77.6909,-52.0806 13.5177,6.1394 28.2334,21.3079 36.5489,37.6735 6.972,13.7213 19.3027,47.9958 17.8057,49.4928 -0.4911,0.4919 -5.239,-6.1468 -10.5503,-14.7516 z m 302.3387,6.9712 c -2.916,-7.1223 -2.3222,-123.7891 0.7852,-154.3097 5.1617,-50.6928 17.5982,-92.3935 32.6473,-109.4694 17.1371,-19.445 45.0944,-23.2118 63.6936,-8.5817 6.7473,5.3074 18.4875,24.953 16.2493,27.1912 -0.6294,0.6294 -5.0641,-1.1119 -9.8546,-3.8699 -36.689,-21.1235 -62.7641,3.335 -79.5769,74.6433 -9.4356,40.0192 -19.0161,114.3904 -21.4128,166.2225 -0.3999,8.6493 -1.234,11.3424 -2.5314,8.1737 z M 846.29818,1273.9377 c -12.90595,-17.2936 -12.90595,-17.2927 1.19252,-37.5613 11.7591,-16.9055 13.52375,-18.4109 19.81991,-16.9078 11.10398,2.6509 15.94112,5.955 15.94112,10.8889 0,7.9443 -22.76375,51.9649 -26.8719,51.9649 -2.10339,0 -6.64015,-3.7731 -10.08165,-8.3847 z m 1145.19702,-10.4621 c -21.7005,-39.204 -48.3458,-70.1654 -67.1436,-78.0197 -25.098,-10.4865 -55.657,5.1529 -72.2155,36.9582 -8.8674,17.0322 -8.1283,9.087 1.2504,-13.4416 13.9958,-33.6195 35.8846,-52.3354 58.2583,-49.8136 24.1723,2.7246 48.0695,25.151 66.3829,62.2974 9.3357,18.9362 22.9561,53.3511 21.6369,54.6703 -0.4127,0.4128 -4.0893,-5.2798 -8.1694,-12.651 z m 239.5099,0.7878 c 5.2655,-9.2174 6.6384,-15.1178 6.663,-28.6356 0.026,-14.6652 -1.0355,-18.6003 -7.6616,-28.3789 -9.4338,-13.9222 -9.5589,-17.0085 -1.146,-28.2659 8.202,-10.9752 7.4682,-19.8175 -5.3368,-64.3054 -42.6021,-148.01151 -151.595,-363.14881 -195.8807,-386.64231 -9.6553,-5.1221 -13.1639,-9.4489 -23.6045,-29.1086 -13.4668,-25.3581 -23.1274,-35.0736 -64.3177,-64.683 -102.4868,-73.6721 -219.6464,-131.5465 -267.4813,-132.1304 -15.7168,-0.192 -17.9328,0.4609 -25.2185,7.4288 -14.3218,13.6972 -21.9634,51.0759 -28.5015,139.4151 -4.0776,55.0939 -13.8942,141.5841 -27.0857,238.6408 -24.4229,179.69201 -27.1724,208.39201 -20.8834,217.99021 2.9297,4.4713 6.5709,6.4611 11.823,6.4611 9.9497,0 13.9213,-7.4852 12.1781,-22.9519 l -1.3385,-11.8768 6.328,7.7397 c 28.0522,34.3105 9.9693,73.5272 -33.9035,73.5272 -21.8355,0 -42.7067,-23.361 -48.0689,-53.8031 -3.5303,-20.0423 0.5117,-52.8828 21.3195,-173.22811 19.6609,-113.7102 29.2306,-171.7763 34.44,-208.9719 2.2853,-16.3179 6.9077,-48.2441 10.272,-70.9473 8.6835,-58.599 9.7934,-75.5278 6.5448,-99.83 -3.3394,-24.9806 -12.0698,-45.5226 -29.288,-68.912 -17.5823,-23.8837 -16.7766,-32.7585 5.3334,-58.7488 7.6466,-8.9886 13.7553,-20.1194 18.672,-34.0231 15.5584,-43.9972 30.077,-65.1845 52.2329,-76.2253 29.1918,-14.5469 59.769,-4.7682 67.8591,21.7015 1.8733,6.129 1.7297,6.2406 -2.8864,2.246 -8.8535,-7.6616 -21.2364,-12.5656 -31.7287,-12.5656 -7.9968,0 -12.5244,1.9021 -19.8617,8.3443 -16.8001,14.7507 -21.2275,36.723 -11.315,56.1532 7.5359,14.7717 6.5559,21.2921 -5.2506,34.9335 -7.8003,9.0125 -9.9968,13.418 -8.761,17.5712 2.8544,9.5928 8.8003,17.1526 13.4908,17.1526 2.486,0 18.6245,3.4442 35.8633,7.6537 105.7377,25.8202 220.0405,86.8438 309.0741,165.0076 9.9327,8.72 24.1447,19.3759 31.5825,23.6798 18.4117,10.6541 28.7136,21.5567 36.2975,38.4141 3.515,7.8128 14.1748,25.8147 23.6885,40.0042 44.9122,66.9854 64.7603,103.2339 104.001,189.9364 36.9607,81.66451 40.4317,89.99531 51.6935,124.06821 20.4671,61.9239 30.6693,126.7866 25.5099,162.1848 -3.3148,22.743 -14.7702,49.4368 -25.5628,59.5671 l -6.4161,6.0224 6.632,-11.6095 z m -986.5293,-18.7043 c 0.069,-45.7023 10.198,-74.4251 35.0045,-99.2316 31.772,-31.772 76.5696,-38.8635 126.5834,-20.0383 16.9038,6.3625 43.5294,20.3704 45.847,24.1204 0.6545,1.0591 -7.1574,-0.2399 -17.3598,-2.8871 -24.1087,-6.255 -60.8666,-8.4521 -80.4674,-4.8098 -46.1558,8.577 -86.3384,47.0861 -100.3271,96.1488 -2.2874,8.0225 -4.1589,18.7614 -4.1589,23.8641 0,5.1026 -1.1609,9.2775 -2.5799,9.2775 -1.5546,0 -2.5647,-10.5092 -2.5418,-26.444 z m -429.24443,-7.7397 c -5.69866,-9.0832 -10.18958,-25.3731 -7.68544,-27.8771 1.23646,-1.2366 8.61773,-2.9095 16.40275,-3.7179 17.8358,-1.852 25.68205,2.7771 21.23834,12.5299 -4.09035,8.9772 -18.6415,24.8699 -22.7708,24.8699 -1.94869,0 -5.1819,-2.6122 -7.18485,-5.8048 z m 712.92983,-23.2191 c -10.2573,-14.5442 -34.6479,-47.3412 -54.2012,-72.8822 -122.3789,-159.85421 -213.2356,-246.42311 -258.5738,-246.37071 -25.2557,0.026 -40.6421,32.7341 -20.1958,42.9277 8.4828,4.2291 16.198,0.78 21.143,-9.4513 l 4.1445,-8.575 1.8042,9.6173 c 1.3049,6.956 0.5151,12.245 -2.8545,19.1141 -14.9506,30.4774 -56.8458,27.0558 -74.0993,-6.0518 -7.4172,-14.2327 -8.7644,-43.8424 -2.73,-60.0037 10.3504,-27.7207 31.0584,-46.0188 60.6628,-53.6031 37.1115,-9.5075 64.2728,1.2684 104.1167,41.3068 41.554,41.7568 83.2002,98.2008 136.3844,184.84471 34.1143,55.5766 106.9123,185.5712 103.9213,185.5712 -0.4799,0 -9.2649,-11.8998 -19.5223,-26.444 z m -558.48282,13.6315 c -69.14192,-12.2099 -109.72298,-22.3296 -113.39968,-28.2785 -3.6718,-5.9412 37.69492,-25.9867 53.62735,-25.9867 3.786,0 2.31056,2.0052 -5.79686,7.8782 -5.98159,4.333 -10.42048,9.267 -9.86434,10.9646 2.90058,8.8528 55.27307,15.6556 110.21125,14.3157 26.7108,-0.6518 39.5309,-1.9492 41.8143,-4.2327 6.5335,-6.5334 2.9792,-22.1564 -12.7941,-56.238 -18.0348,-38.9678 -22.5117,-52.3652 -20.3614,-60.9323 0.8496,-3.3852 10.4538,-19.9122 21.3426,-36.7265 21.4641,-33.1445 28.081,-49.35611 24.2538,-59.42241 -7.4646,-19.6333 -40.2311,-13.0812 -38.1977,7.6382 0.6751,6.87511 1.7185,7.76961 9.0464,7.75281 7.7052,-0.017 8.046,0.3431 4.8807,5.1598 -1.8717,2.8483 -6.4728,6.9202 -10.2247,9.0486 -6.223,3.5302 -7.6665,3.4171 -16.4491,-1.29 -21.60554,-11.5793 -28.47039,-42.52211 -14.4611,-65.18171 19.2316,-31.1065 52.6103,-37.1467 85.129,-15.4051 18.1295,12.1212 26.575,28.7323 26.5438,52.2079 -0.034,22.99391 -5.2285,37.91841 -24.03,68.99401 l -14.928,24.6734 7.8335,22.8236 c 19.7198,57.4561 18.9768,103.4833 -2.0095,124.4697 -4.8613,4.8611 -8.2793,5.4011 -33.1539,5.2383 -18.2376,-0.1196 -41.86798,-2.6775 -69.01232,-7.4709 z m 662.88622,-20.7381 c 4.5272,-15.4087 17.1079,-38.8845 26.3037,-49.083 31.0828,-34.4724 69.4553,-24.117 100.1021,27.0138 12.5246,20.8959 11.5315,24.5072 -2.929,10.6506 -14.4387,-13.8355 -37.0278,-26.4023 -51.6666,-28.7431 -16.1108,-2.5762 -36.1111,7.6913 -56.9037,29.2129 -12.4716,12.9087 -16.3109,15.7287 -14.9065,10.9488 z m -425.2055,-28.3673 c 7.371,-65.3484 47.6966,-117.256 95.4904,-122.9165 23.4668,-2.7792 60.0057,9.563 81.2473,27.4441 l 8.6852,7.3111 -14.3973,-4.8208 c -45.6083,-15.2716 -95.5517,-5.3089 -129.5554,25.8436 -11.5648,10.5953 -17.5629,19.0591 -26.444,37.3151 -6.3174,12.9865 -11.5679,25.88 -11.6676,28.6525 -0.1,2.7724 -1.2564,7.3627 -2.5702,10.2006 -1.6119,3.4814 -1.8683,0.5443 -0.7886,-9.0297 z m 768.0314,-29.9871 c -4.0099,-7.9792 -13.7207,-22.2009 -21.5794,-31.6038 -21.8693,-26.1663 -48.6248,-39.7531 -69.3284,-35.2057 -10.5052,2.3072 -28.807,19.0526 -41.3454,37.829 -11.9056,17.8286 -12.5649,17.0957 -5.3108,-5.903 7.1578,-22.694 17.5373,-40.329 29.2656,-49.7227 8.6793,-6.9517 11.8173,-7.9169 24.9476,-7.6731 33.5103,0.6226 64.839,33.9839 87.5607,93.2425 2.8564,7.4495 4.718,13.5445 4.1371,13.5445 -0.5813,0 -4.337,-6.5284 -8.347,-14.5077 z M 907.76078,1133.6269 c -83.07924,-9.3192 -83.72309,-9.4253 -88.30156,-14.5589 -4.55103,-5.103 -4.37611,-5.12 33.63511,-3.2708 l 38.20995,1.859 -8.88328,-12.4782 c -25.50317,-35.8239 -34.59259,-74.4247 -23.68813,-100.5978 5.20203,-12.48611 20.15126,-28.11551 33.45615,-34.97871 21.27962,-10.9767 51.85866,-3.7698 63.42736,14.9487 19.31468,31.25181 -17.19108,76.93221 -43.19699,54.05321 l -7.23851,-6.3683 8.44848,-0.077 c 6.71368,-0.069 8.97874,-1.4759 11.03028,-6.8719 3.53687,-9.3028 0.83245,-16.089 -7.21744,-18.1093 -16.94117,-4.2519 -27.3669,12.5264 -25.09048,40.3791 2.65911,32.5353 14.15505,56.5939 33.58712,70.2909 6.3199,4.4547 11.49079,9.0656 11.49079,10.2466 0,1.1809 -2.97798,3.2793 -6.6177,4.6631 -6.56215,2.495 -8.09065,2.5529 -23.05115,0.8748 z m 730.42662,-21.5779 c 7.5861,-33.6309 22.6553,-57.335 39.2983,-61.8166 24.9402,-6.7156 49.4002,13.3202 65.933,54.0078 3.6737,9.041 6.6795,16.912 6.6795,17.4912 0,0.5796 -6.095,-5.6278 -13.5445,-13.7932 -25.6132,-28.075 -46.76,-35.8977 -65.7466,-24.3212 -7.1206,4.3416 -22.5934,23.046 -33.3785,40.3499 -1.9941,3.1995 -1.7358,-0.8591 0.7585,-11.9179 z m -445.2891,2.8581 c -0.1152,-7.035 10.977,-40.5251 18.6142,-56.2027 8.9937,-18.4621 24.7885,-35.9713 37.0836,-41.1086 19.9535,-8.3371 54.8979,-1.9222 84.7142,15.5513 13.1457,7.704 14.4139,11.1222 2.4268,6.5407 -11.9078,-4.5511 -50.5611,-6.1547 -64.6166,-2.6807 -26.1111,6.4536 -49.6441,28.5723 -69.3985,65.2276 -4.8208,8.9453 -8.7915,14.6478 -8.8237,12.6724 z m -381.2388,-12.4184 c -8.15868,-1.5715 -7.21598,-4.9223 2.31984,-8.2466 13.95735,-4.8655 20.25428,-3.7409 20.25428,3.6174 0,5.6289 -1.0673,6.4052 -8.38467,6.0985 -4.61157,-0.1935 -10.99683,-0.8548 -14.18945,-1.4693 z m -72.88218,-9.7199 c 0,-4.9284 2.48668,-14.079 5.52597,-20.3348 5.35888,-11.0302 6.15857,-11.5482 26.44398,-17.1286 11.50489,-3.165 29.9154,-7.2045 40.91223,-8.9767 l 19.99422,-3.2222 -0.008,17.0569 -0.008,17.0569 -21.27574,7.2873 c -11.70157,4.0081 -29.40235,8.1009 -39.33497,9.0953 -9.93261,0.9944 -20.59517,3.2297 -23.69449,4.9672 -8.04688,4.5106 -8.55572,4.1655 -8.55572,-5.8013 z m 1308.00938,-19.701 c 0,-75.01811 15.0098,-120.97841 44.4159,-136.00241 9.2159,-4.7086 14.3601,-5.805 21.2081,-4.5202 11.3002,2.1199 23.4124,12.1258 29.7748,24.597 l 4.876,9.5578 -11.8762,-6.0125 c -26.9617,-13.6497 -47.2039,-3.6219 -62.1627,30.7951 -7.2272,16.62811 -17.781,60.26791 -20.9896,86.79161 -1.4433,11.9312 -3.2141,22.2831 -3.9352,23.0041 -0.7215,0.7207 -1.3111,-11.9736 -1.3111,-28.2105 z m -573.2586,-0.78 c -4.6799,-4.8412 -10.7203,-12.5807 -13.4232,-17.1986 -4.8324,-8.2565 -4.8324,-8.3607 0,-6.2595 2.7029,1.1752 9.1084,2.6361 14.2344,3.2463 8.1002,0.9644 10.5927,-0.1874 19.0431,-8.8022 l 9.7228,-9.9118 -1.8418,12.8995 c -2.3826,16.6857 -10.3713,34.8287 -15.3357,34.8287 -2.1399,0 -7.7198,-3.961 -12.3996,-8.8024 z m -284.7937,-25.4864 c 6.2884,-27.0063 22.7383,-55.77481 37.644,-65.83371 13.2153,-8.9182 38.639,-7.3168 62.5626,3.9405 9.5779,4.5069 17.4143,8.5866 17.4143,9.0661 0,0.4798 -11.4422,0.4119 -25.4273,-0.1497 -21.502,-0.8636 -27.2773,-0.2029 -37.4105,4.2795 -13.966,6.17771 -36.9254,27.05431 -48.4216,44.02891 -6.7019,9.8955 -7.7593,10.6714 -6.3615,4.6684 z m 637.7935,-0.54 c 3.0557,-13.8986 14.2357,-43.6224 20.5182,-54.55101 3.3808,-5.881 9.7416,-13.7174 14.1351,-17.4143 15.4297,-12.9832 40.3468,-6.9952 64.3607,15.4669 12.3172,11.52131 38.688,44.68781 38.688,48.65791 0,1.0163 -7.5256,-5.048 -16.7236,-13.4762 -30.6319,-28.06861 -58.7743,-38.02231 -78.5655,-27.78791 -9.9817,5.16171 -25.9073,23.74251 -35.8625,41.84161 -5.889,10.7067 -7.7648,12.7865 -6.5504,7.263 z m -1091.61287,0.325 c -4.34971,-3.1805 -4.54621,-4.6573 -1.80403,-13.5565 5.33919,-17.3276 14.25257,-30.3867 24.00279,-35.16711 8.79195,-4.3106 75.27512,-12.3533 78.17174,-9.4568 0.66992,0.6699 0.5521,10.0307 -0.26229,20.80111 l -1.48112,19.5826 -18.35839,3.1274 c -15.30887,2.6079 -56.32327,12.3803 -71.3818,17.0079 -2.2028,0.6768 -6.20182,-0.3749 -8.88664,-2.3386 z m 715.33627,-18.4004 c -10.5629,-7.1776 -20.9273,-21.1367 -31.5942,-42.55191 l -7.0678,-14.1894 11.2355,10.7173 c 24.4734,23.34451 39.7461,28.84521 56.3086,20.28051 8.0789,-4.17781 14.9381,-12.76411 27.7654,-34.75651 7.9057,-13.5544 8.2636,-13.8294 6.8583,-5.271 -0.8152,4.9664 -3.0932,15.7036 -5.0617,23.8604 -10.1384,42.01031 -33.5699,58.81311 -58.4441,41.91061 z m 173.4318,5.4241 c 0,-6.1479 20.9654,-40.63661 31.125,-51.20131 9.579,-9.9608 13.4428,-12.2527 20.6437,-12.2448 16.1839,0.017 33.3164,15.3831 50.3292,45.13861 l 7.3753,12.8995 -14.1032,-12.6352 c -15.9029,-14.2475 -30.9538,-22.05311 -42.6848,-22.13681 -10.2442,-0.069 -29.5212,12.68261 -40.1938,26.59671 -11.1453,14.5302 -12.4914,15.9939 -12.4914,13.5833 z m 401.3309,-55.33111 c -2.3321,-18.9776 0.077,-53.9606 5.01,-72.6476 4.6676,-17.694 15.5119,-35.4056 25.3508,-41.4049 4.7221,-2.8793 12.8639,-4.9926 19.2563,-4.9981 9.622,-0.01 12.7532,1.5598 23.8641,11.9529 7.0339,6.5794 12.789,12.8395 12.789,13.9113 0,1.0718 -4.3089,-0.2476 -9.5751,-2.933 -12.1765,-6.2078 -23.0835,-6.1855 -33.3394,0.069 -20.0847,12.2471 -31.6773,39.2686 -38.2753,89.2166 l -3.0672,23.2191 -2.0132,-16.3844 z m -1277.62059,0.7577 c -2.29499,-5.9807 9.05313,-27.5949 21.80153,-41.5244 8.6904,-9.4954 11.55065,-10.9337 25.16719,-12.6552 12.97483,-1.6403 56.91612,2.1443 59.93391,5.1621 0.45407,0.454 -2.42347,10.2497 -6.39385,21.7688 l -7.21882,20.9438 -19.34925,0.043 c -10.64209,0.026 -27.47593,1.9029 -37.40855,4.1722 -30.5713,6.9849 -34.56499,7.2131 -36.53216,2.0866 z m 872.35999,-14.1339 c 1.0608,-3.4969 4.7841,-12.1627 8.274,-19.2574 15.9607,-32.447 41.3822,-42.6457 65.6073,-26.3204 8.0477,5.4234 28.0427,29.184 28.0716,33.3583 0.01,1.0329 -5.3597,-1.5292 -11.9263,-5.6936 -6.5665,-4.1644 -18.0299,-8.9347 -25.4741,-10.6006 -12.4574,-2.7878 -14.6396,-2.5232 -27.4103,3.3234 -7.6315,3.4938 -19.5445,12.0214 -26.4732,18.9502 -10.2309,10.2308 -12.2355,11.4033 -10.669,6.2401 z m 184.6097,-12.8078 c -0.01,-13.0111 6.0212,-36.7184 11.9013,-46.7864 8.2645,-14.1506 19.8018,-20.2948 38.0562,-20.2667 12.6666,0.017 18.3215,1.5032 28.9389,7.5928 11.7779,6.7553 36.0524,30.4212 33.6587,32.8149 -0.5151,0.5151 -8.6573,-2.6773 -18.0945,-7.0935 -21.9312,-10.2629 -43.383,-12.6043 -56.8649,-6.2067 -10.6173,5.0382 -18.3927,14.1495 -29.9171,35.0565 l -7.6721,13.9188 -0,-9.0297 z m -963.67973,-40.4027 c -13.53561,-3.1592 -30.76668,-3.2371 -54.1779,-0.245 -4.23628,0.5417 -5.30204,-1.0535 -5.95432,-8.9107 -0.67938,-8.1865 0.76451,-11.2614 9.9898,-21.2695 6.68082,-7.2479 14.37692,-12.667 20.22625,-14.242 9.46883,-2.5497 39.41614,-0.3432 69.73341,5.1385 7.71011,1.394 14.39352,2.5346 14.85214,2.5346 0.45836,0 -6.13982,8.3056 -14.66329,18.4569 -8.52339,10.1513 -15.49703,19.4389 -15.49703,20.6392 0,2.8147 -5.44437,2.3479 -24.50906,-2.1019 z m 610.43463,-23.9115 c -2.8449,-11.125 -6.5596,-17.0575 -18.0593,-28.8404 -17.002,-17.4206 -24.6053,-20.1099 -39.7436,-14.0577 -9.0345,3.612 -13.2017,7.978 -24.8736,26.0604 -7.7115,11.9467 -14.4258,21.3165 -14.9206,20.8217 -0.4945,-0.4945 2.0908,-10.0518 5.7457,-21.2378 9.0926,-27.8269 19.0665,-78.4541 19.7627,-100.3148 0.3165,-9.9326 -0.3981,-37.2151 -1.5886,-60.6277 l -2.1639,-42.5684 9.2079,-27.0889 c 11.1619,-32.8379 13.2521,-45.0929 10.9007,-63.9129 -1.707,-13.6622 -2.9068,-15.5694 -22.9769,-36.5237 -20.606,-21.5137 -21.3314,-22.7027 -26.9551,-44.1811 -9.745,-37.2183 -13.5952,-41.1965 -55.1072,-56.9381 -34.6808,-13.1513 -41.3017,-18.1007 -52.9395,-39.5755 -6.8269,-12.5975 -13.5948,-20.8817 -22.6378,-27.7097 -16.2192,-12.2463 -63.5637,-35.982 -89.0066,-44.6226 l -19.3492,-6.5711 25.799,1.3834 c 14.1894,0.7609 33.787,3.0825 43.5502,5.1591 16.5973,3.5302 18.1906,3.4659 24.5091,-0.9891 34.9301,-24.628 76.1334,-31.3374 112.9598,-18.394 18.0388,6.3401 23.6702,11.044 8.6606,7.2342 -18.3336,-4.6536 -54.9445,7.6289 -61.549,20.6488 -4.1938,8.2677 1.4964,20.7587 11.8982,26.1187 47.4919,24.4725 107.1907,86.461 136.4274,141.6599 9.8973,18.6862 10.1875,18.9541 29.7326,27.4531 23.7448,10.3252 45.968,24.699 55.3681,35.8119 7.5831,8.9647 17.6711,29.59 20.3957,41.6999 1.5698,6.9777 0.9892,6.5967 -5.8974,-3.8698 -9.7878,-14.8758 -14.7883,-19.1818 -30.185,-25.9924 -9.0991,-4.025 -15.7044,-5.1944 -24.0357,-4.2553 -18.8387,2.1234 -20.1216,4.8953 -19.1164,41.3058 1.3676,49.5423 -5.9521,102.7555 -21.6844,157.6414 l -6.574,22.9352 9.8244,8.0236 c 32.2843,26.3668 43.9684,51.4499 39.7899,85.4206 l -1.5866,12.8995 -3.5816,-14.0062 z m 181.6949,1.6786 c 4.8899,-16.5703 23.8128,-35.3669 35.6285,-35.3908 13.8035,-0.026 31.4074,15.8848 36.4528,32.9509 1.6786,5.6779 1.3295,5.614 -10.5739,-1.935 -17.5858,-11.1524 -32.1053,-10.8178 -49.8894,1.15 -12.1882,8.2021 -13.167,8.4738 -11.618,3.2249 z m 148.3247,-11.4095 c -0.4514,-46.1943 34.5317,-75.4083 69.1505,-57.7472 8.3247,4.2471 31.385,26.0833 31.385,29.7191 0,0.6811 -7.1768,-2.156 -15.9484,-6.3043 -8.7716,-4.1483 -20.7977,-8.2696 -26.7246,-9.1584 -19.7882,-2.9674 -37.6665,10.7143 -51.8746,39.6981 -5.8789,11.9928 -5.9075,12.0109 -5.9879,3.7927 z m 214.0511,-7.6078 c 0,-55.7597 24.6558,-89.6974 54.1026,-74.4699 4.0745,2.107 9.7773,7.1581 12.673,11.2246 l 5.2648,7.3938 -17.5885,-1.1914 c -17.3455,-1.175 -17.7152,-1.0648 -26.7459,7.9658 -9.3639,9.3639 -18.7054,30.2702 -22.4272,50.1917 -3.1133,16.6652 -5.2788,16.2079 -5.2788,-1.1146 z M 898.73113,859.03899 c -4.96631,-1.2273 -19.47825,-3.4887 -32.24875,-5.0254 -37.22685,-4.4797 -39.98846,-5.1013 -39.98846,-9.0008 0,-4.9192 9.38826,-13.4779 21.7993,-19.8728 14.48382,-7.4628 53.88732,-5.4401 81.30074,4.1736 10.58928,3.7136 20.16794,7.6667 21.28589,8.7847 2.29285,2.2928 -34.11023,23.8453 -39.58487,23.4362 -1.94387,-0.1453 -7.59754,-1.2682 -12.56385,-2.4955 z m 735.27157,-13.8453 c 0,-4.9704 11.1809,-22.3597 18.1441,-28.2189 14.6174,-12.2997 30.8372,-7.5305 42.5892,12.5227 8.3808,14.3008 8.0078,15.7733 -2.052,8.1004 -18.2406,-13.9128 -32.7557,-13.5072 -49.7222,1.3896 -4.9275,4.3264 -8.9591,7.1192 -8.9591,6.2062 z m -674.64392,-21.1886 c -20.36048,-7.6771 -58.96878,-16.3844 -72.64904,-16.3844 -10.65293,0 -14.33023,-1.0179 -15.59627,-4.3174 -2.42442,-6.3178 11.40694,-16.7786 31.6202,-23.9144 l 16.98529,-5.9963 22.39972,5.8843 c 20.58365,5.4072 67.71162,21.3861 73.34522,24.8677 2.4043,1.4861 -38.38929,23.9902 -43.20562,23.8349 -1.41894,-0.043 -7.22372,-1.8342 -12.8995,-3.9744 z m 1003.52282,-18.0133 c 2.3812,-27.9541 7.7907,-45.7322 17.1637,-56.4074 10.4554,-11.908 22.6539,-12.3841 37.7179,-1.4718 15.1206,10.9534 14.9247,12.2091 -1.7173,11.0053 -14.4412,-1.0446 -15.294,-0.7464 -24.6531,8.6123 -10.7805,10.7806 -21.1821,30.9068 -23.6458,45.7524 -3.1262,18.8383 -6.6464,13.4184 -4.8654,-7.4908 z m -196.7931,-11.9156 c 2.4053,-28.3322 20.0485,-47.8674 40.7265,-45.0939 10.5147,1.4103 28.6681,12.8829 35.2467,22.2753 3.609,5.1525 3.5035,5.1792 -6.5079,1.6469 -29.7165,-10.4846 -48.6874,-3.4696 -61.8408,22.8675 -3.2546,6.5168 -6.5603,11.8487 -7.3459,11.8487 -0.786,0 -0.911,-6.095 -0.2786,-13.5445 z m -760.2915,-8.5104 c -12.77052,-4.6709 -34.24819,-11.0271 -47.72817,-14.1248 -13.47998,-3.0978 -26.09767,-7.1423 -28.03921,-8.9878 -7.90361,-7.5125 6.35678,-15.3457 36.81681,-20.2233 l 22.04266,-3.5297 38.12281,14.6519 c 20.9675,8.0585 40.3995,15.4965 43.1821,16.5289 4.2004,1.5583 1.7912,3.8216 -14.1894,13.3296 -10.5869,6.2988 -20.9902,11.3164 -23.1187,11.15 -2.1284,-0.1668 -14.3184,-4.1239 -27.0889,-8.7948 z m 635.9695,-0.9138 c 0.01,-0.847 3.4703,-7.5489 7.6822,-14.8927 11.4283,-19.9262 22.078,-20.7248 33.3415,-2.5002 7.8758,12.7434 6.9145,14.7462 -4.8586,10.1216 -9.8393,-3.865 -10.7673,-3.7693 -23.2191,2.3929 -7.1335,3.5304 -12.9592,5.7257 -12.946,4.8784 z m 282.808,-34.6045 c -3.102,-30.2765 8.0992,-61.1022 22.2028,-61.1022 7.2745,0 25.9008,9.1354 31.7066,15.5507 4.5496,5.0272 4.4436,5.0773 -7.3307,3.4634 -9.0095,-1.2349 -13.6011,-0.5536 -18.6748,2.7708 -8.2767,5.4231 -18.5894,26.9173 -20.8024,43.3576 -0.9072,6.74 -2.5006,12.2545 -3.5408,12.2545 -1.0402,0 -2.6425,-7.3327 -3.5607,-16.2948 z m -878.7891,-1.4021 c -39.6286,-13.9417 -46.43817,-17.1827 -46.43817,-22.1022 0,-3.9289 12.93497,-9.5945 32.28797,-14.1422 12.3673,-2.9063 13.7914,-2.6488 32.2487,5.8312 10.6205,4.8794 26.8563,10.9072 36.0794,13.3951 9.2232,2.4879 17.7381,5.3776 18.9222,6.4217 3.0145,2.6579 -26.3181,23.1647 -32.8867,22.9914 -2.9616,-0.077 -21.0576,-5.6559 -40.2134,-12.395 z m 601.1168,-14.6097 c 0,-5.8479 11.7396,-16.7115 18.0593,-16.7115 5.742,0 18.0593,10.6659 18.0593,15.6381 0,1.7771 -1.8164,2.2705 -4.5149,1.2266 -11.1274,-4.3049 -18.9246,-4.4142 -25.1239,-0.3523 -5.801,3.8009 -6.4798,3.8218 -6.4798,0.1991 z m -540.4891,-12.4459 c -25.4598,-6.9942 -46.1716,-17.0104 -47.2493,-22.8496 -1.6557,-8.9725 40.7887,-16.2401 59.1808,-10.1332 5.1434,1.7078 18.4944,3.9338 29.6688,4.9466 l 20.3173,1.8414 -16.1244,16.1244 c -8.8684,8.8684 -18.156,16.038 -20.6392,15.9323 -2.4832,-0.1057 -13.8025,-2.7435 -25.154,-5.8619 z m 648.8449,-2.9616 c 0,-24.2551 17.2187,-33.8727 36.8096,-20.5603 11.6301,7.9029 12.2591,11.009 1.9219,9.4918 -12.0355,-1.7664 -20.9564,1.6044 -30.2085,11.4144 l -8.523,9.0371 0,-9.383 z m 135.2541,-5.1739 c -1.2927,-4.2568 -2.3591,-17.6078 -2.3697,-29.6688 -0.026,-33.7107 9.3786,-43.9761 30.8007,-33.6058 17.3843,8.4156 19.5821,12.6342 5.7711,11.0775 -9.9525,-1.1218 -11.8969,-0.4505 -16.8189,5.8069 -6.0605,7.7046 -10.3573,21.1198 -13.2059,41.2304 -1.7761,12.5398 -1.8926,12.6837 -4.1773,5.1598 z m -241.03,-19.0775 c 0,-5.6387 7.8073,-18.331 11.2759,-18.331 3.2779,0 9.1932,5.5716 12.9689,12.2156 1.3409,2.3595 -0.2485,2.7742 -6.1273,1.5985 -5.6768,-1.1354 -9.3878,-0.2755 -13.0277,3.0186 -3.1405,2.8421 -5.0898,3.4159 -5.0898,1.4983 z m -525.8463,-15.8568 c -3.6382,-1.4863 -5.664,-4.1751 -5.1513,-6.8371 1.4827,-7.6989 16.2398,-13.8734 38.7178,-16.1998 11.7963,-1.2209 24.6406,-3.0244 28.5427,-4.0078 8.7693,-2.2099 8.7629,-0.6371 -0.06,15.5408 l -7.0379,12.8995 -24.5057,0.527 c -13.4781,0.2898 -27.2039,-0.5753 -30.5019,-1.9226 z m 612.4841,-12.4521 c -2.8077,-4.5429 4.4132,-17.0273 10.3409,-17.8783 2.9391,-0.4219 8.1525,1.588 11.5854,4.4665 l 6.2414,5.2337 -7.7397,-1.3116 c -8.4915,-1.439 -11.9794,0.2069 -15.9878,7.5444 -1.7535,3.2096 -3.2528,3.8666 -4.4402,1.9453 z m 114.6387,-8.0545 c -4.2636,-15.6478 -2.0724,-32.3643 5.2664,-40.176 7.0578,-7.5127 13.1405,-7.7996 26.938,-1.2705 l 10.3196,4.8833 -9.7919,0.2089 c -13.3927,0.2857 -21.5012,8.7815 -23.8976,25.039 -3.2384,21.9698 -5.2348,24.5268 -8.8345,11.3154 z m -201.2765,-10.4984 c 0,-0.793 1.7414,-3.6954 3.8698,-6.4498 3.8307,-4.9573 3.909,-4.9573 7.7397,0 5.3935,6.9796 4.9462,7.8916 -3.8698,7.8916 -4.2569,0 -7.7397,-0.6488 -7.7397,-1.4418 z m -505.6605,-6.4433 c 0,-5.444 14.8464,-18.6472 23.0356,-20.486 3.6483,-0.8192 13.0185,-5.4603 20.8227,-10.3135 16.0578,-9.9858 17.1353,-9.0615 13.5172,11.5957 l -2.0334,11.6095 -19.2863,5.647 c -23.6349,6.9203 -36.0558,7.5911 -36.0558,1.9473 z m 573.3245,-25.6536 c 0.5615,-6.179 2.0484,-7.8961 7.3739,-8.5151 3.7121,-0.4314 8.143,0.9988 9.9905,3.2249 2.8629,3.4496 2.3389,4.0003 -3.8062,4.0003 -3.9195,0 -8.7317,2.0316 -10.694,4.5148 -3.2278,4.0848 -3.5007,3.7777 -2.8642,-3.2249 z m 109.8715,-0.794 c -1.1947,-8.1404 1.9668,-22.7364 5.3819,-24.847 2.7674,-1.7104 18.3148,3.4934 18.3148,6.1301 0,1.0523 -2.9627,3.2633 -6.5838,4.9131 -3.6211,1.6499 -8.2805,7.0606 -10.3542,12.0237 -2.0737,4.9632 -4.2036,9.0239 -4.733,9.0239 -0.5298,0 -1.4409,-3.2597 -2.0257,-7.2438 z m -668.9464,-8.0463 c -1.7305,-5.4523 4.7406,-23.4084 8.4359,-23.4084 3.4492,0 23.4909,-20.9099 25.1984,-26.2899 2.6472,-8.3405 5.8578,-4.9649 9.1131,9.5816 3.1517,14.0832 3.1015,14.3418 -4.269,22.035 -8.208,8.5673 -29.6195,23.0522 -34.0757,23.0522 -1.5539,0 -3.5351,-2.2367 -4.4027,-4.9705 z m -359.95618,-8.7151 c -13.05748,-6.5059 -36.1186,-19.9596 -36.1186,-21.0713 0,-0.4003 5.08662,-0.1546 11.30357,0.5461 18.06335,2.0361 29.15803,-3.3436 51.98946,-25.2089 11.44031,-10.9561 25.50378,-22.3196 31.2524,-25.2524 5.98365,-3.0526 23.02612,-7.1704 39.86505,-9.6321 33.20838,-4.8548 39.46327,-7.3661 50.9593,-20.4594 10.58327,-12.0536 11.09357,-24.4195 1.32504,-32.1035 -11.66089,-9.1725 -29.85108,-5.5198 -49.378,9.9153 -23.93545,18.9199 -34.21257,21.6561 -54.48113,14.5049 -11.98467,-4.2284 -17.47306,-3.1464 -24.29827,4.7905 -4.55267,5.2942 -4.56754,5.2205 -0.59166,-2.9297 5.08154,-10.4156 12.09956,-15.0861 27.9988,-18.6331 16.22559,-3.6199 22.76641,-8.1479 29.76981,-20.6087 8.02805,-14.2841 16.00458,-19.7713 39.55537,-27.211 33.87899,-10.7024 65.24628,-7.4799 82.95804,8.5226 7.738,6.9912 17.3456,28.2118 18.9656,41.8895 1.2339,10.4185 0.2648,15.1156 -5.5868,27.0757 -13.64029,27.8798 -53.47489,48.1355 -121.91423,61.9928 -17.78067,3.6002 -34.78943,8.4264 -37.79734,10.7248 -3.00782,2.2984 -9.84,9.7848 -15.18263,16.6364 -8.56449,10.9834 -10.85389,12.4478 -19.34925,12.3767 -5.29946,-0.045 -14.85962,-2.6837 -21.24487,-5.8652 z m 1001.08568,-10.168 c -3.062,-6.228 -2.9265,-7.6992 1.1209,-12.1715 3.6534,-4.037 5.6542,-4.5252 9.691,-2.3648 5.0444,2.6997 5.0432,2.7532 -0.1479,6.3894 -2.8795,2.0168 -5.6731,6.2689 -6.2081,9.449 -0.9404,5.591 -1.0876,5.548 -4.4555,-1.3021 z M 716.30381,569.91019 c -14.4944,-21.9024 -10.08466,-64.2583 8.63939,-82.9823 10.05981,-10.0598 14.29386,-11.1935 25.6621,-6.8713 5.93162,2.2552 8.5393,1.5991 17.02949,-4.2846 26.48887,-18.3568 45.90219,-46.044 45.94518,-65.5267 0.0172,-8.9834 5.40077,-15.8657 21.28298,-27.2214 21.44576,-15.3336 32.23439,-26.536 48.95214,-50.8297 18.18331,-26.4234 40.06456,-47.3401 74.25374,-70.9806 88.15087,-60.9531 98.75907,-71.1094 120.94097,-115.7903 12.4283,-25.0342 22.8755,-53.668302 27.6024,-75.653902 l 3.6055,-16.7694 -1.1507,34.8287 c -1.3273,40.179602 -6.4125,64.114402 -21.4205,100.821802 -19.8433,48.5338 -21.2409,50.2962 -54.6636,68.9304 -82.59022,46.0465 -128.87337,90.7511 -133.25499,128.71 -1.49961,12.9915 3.73536,19.3492 17.69004,21.4839 l 10.98203,1.6799 -16.88622,8.1665 c -11.21724,5.4249 -24.8834,9.3552 -40.70739,11.7074 -14.89428,2.2139 -25.68127,5.2242 -28.78489,8.0329 -2.73005,2.4707 -9.74858,12.5463 -15.59678,22.3903 -12.75916,21.4769 -23.94509,34.6457 -33.72437,39.7028 -9.53841,4.9325 -28.07783,4.747 -40.96607,-0.4098 -13.13969,-5.2574 -16.51549,-3.8594 -23.72837,9.827 -4.47183,8.4853 -5.86274,15.4533 -5.9213,29.6655 -0.0998,24.2886 3.75848,28.8648 13.89938,16.4837 7.64511,-9.3341 19.22353,-12.5082 47.20684,-12.9415 9.64694,-0.1494 13.96767,-1.7713 20.87561,-7.8365 9.13612,-8.0217 19.777,-13.0736 27.11028,-12.8709 2.39071,0.066 -1.14281,2.9781 -7.85253,6.4712 -6.92144,3.6033 -13.89104,9.6224 -16.10958,13.9127 -6.34174,12.2634 -13.42856,15.6146 -33.02083,15.6146 -19.78345,0 -28.90968,3.618 -38.81245,15.3867 -3.62476,4.3078 -7.80996,7.8324 -9.30037,7.8324 -1.49041,0 -5.89017,-4.8058 -9.77713,-10.6795 z m 311.15519,7.9372 c -20.5812,-2.2102 -44.76055,-9.5291 -56.16259,-17 l -6.7436,-4.4186 14.17234,-6.2622 c 11.82376,-5.2245 17.89057,-6.194 36.61055,-5.8509 20.9121,0.3833 22.9814,0.9186 30.4247,7.8717 7.7638,7.2524 15.8638,9.7556 56.7828,17.5476 l 11.6096,2.2108 -18.0593,2.889 c -27.893,4.4621 -47.2321,5.3109 -68.6345,3.0126 z m 129.2621,-9.8376 c 0,-4.081 5.0474,-18.0417 11.2167,-31.0237 l 11.2166,-23.6036 6.0053,11.3203 6.0055,11.3203 -6.8786,11.7373 c -15.1958,25.9298 -27.5655,35.0164 -27.5655,20.2494 z m -16.6528,-24.1331 c -3.0408,-7.2321 -2.9535,-9.3642 0.6605,-16.1244 2.7666,-5.1747 4.2014,-14.4995 4.2737,-27.7728 0.06,-10.9903 0.645,-19.9877 1.3011,-19.9942 0.6553,-0.01 6.0441,4.7499 11.974,10.5697 l 10.7817,10.5814 -5.9039,19.1353 c -6.1935,20.074 -12.4859,31.939 -16.9382,31.939 -1.4547,0 -4.2218,-3.7503 -6.1492,-8.334 z m -409.03068,-8.2195 c 0,-6.3708 7.8613,-22.3536 11.72392,-23.8358 4.78967,-1.838 11.52184,3.5304 11.41357,9.1014 -0.10062,5.1931 -23.13749,19.8633 -23.13749,14.7344 z m 273.46938,-0.1734 c 0,-0.7402 4.5249,-5.4338 10.0554,-10.4302 5.5304,-4.9964 10.7768,-11.9591 11.6586,-15.4727 1.4525,-5.787 2.8834,-6.3883 15.2016,-6.3883 26.2587,0 63.8275,-13.5838 90.5695,-32.7473 7.2157,-5.1708 11.3963,-7.1739 9.2902,-4.4514 -35.0487,45.3069 -63.6941,63.1069 -107.7499,66.9547 -9.5788,0.8366 -20.028,2.0521 -23.2206,2.7011 -3.1926,0.6489 -5.8048,0.5743 -5.8048,-0.1659 z m 116.5452,-12.4632 c -3.0852,-3.2841 -5.6095,-7.1118 -5.6095,-8.5061 0,-1.3942 4.6438,-7.0696 10.3196,-12.6118 l 10.3196,-10.0769 0,13.5927 c 0,13.2178 -3.2423,23.5731 -7.3807,23.5731 -1.1218,0 -4.5638,-2.6869 -7.649,-5.971 z m -86.9553,-40.1078 c 1.0214,-4.6503 -0.264,-12.3415 -3.4753,-20.7929 -3.6475,-9.5992 -4.2335,-13.7048 -2.061,-14.4404 42.115,-14.2617 57.6811,-20.8719 75.2726,-31.9647 17.5451,-11.0637 34.3073,-25.8753 40.3528,-35.657 7.8266,-12.6637 8.7842,-7.3075 2.0022,11.1991 -4.7033,12.8342 -9.7053,19.2561 -32.2584,41.4157 -37.201,36.5519 -65.4474,57.6205 -77.2509,57.6205 -3.2823,0 -3.8479,-1.6166 -2.582,-7.3803 z m 32.3277,3.7273 c 0,-2.0092 4.6831,-7.3621 10.4067,-11.8954 l 10.4068,-8.2423 -1.5089,8.565 c -0.8299,4.7108 -2.7528,10.0637 -4.273,11.8954 -3.7578,4.5279 -15.0316,4.2859 -15.0316,-0.3227 z m 27.3357,-3.6875 c -0.6536,-1.0568 -0.5323,-6.8032 0.2675,-12.7699 1.3087,-9.7574 2.1674,-10.8484 8.5392,-10.8484 7.8926,0 14.1714,5.8017 12.1054,11.1855 -1.727,4.5007 -19.3421,14.9732 -20.9122,12.4328 z m -171.78728,-88.7795 c -8.90943,-4.6243 -9.19434,-9.9344 -1.44148,-26.8689 12.01357,-26.2411 59.39954,-66.9425 109.77446,-94.2889 9.2232,-5.0068 27.218,-14.6119 39.9885,-21.3445 87.1786,-45.9609 139.7922,-101.3948 165.3007,-174.161702 4.6547,-13.2781 5.907,-15.158 6.0148,-9.0297 0.2305,13.1077 -9.3331,51.472302 -18.0526,72.417502 -14.0949,33.8573 -25.5224,51.6872 -64.1631,100.1112 -43.5919,54.6288 -76.3242,88.2229 -103.1276,105.843 -51.953,34.1529 -116.10926,56.7601 -134.29368,47.322 z"
     id="path4138"
     inkscape:connector-curvature="0" />
</svg>
